<?xml version="1.0" encoding="utf-8"?>
<!-- Generator: Adobe Illustrator 18.1.1, SVG Export Plug-In . SVG Version: 6.00 Build 0)  -->
<svg version="1.1" id="Layer_1" xmlns="http://www.w3.org/2000/svg" xmlns:xlink="http://www.w3.org/1999/xlink" x="0px" y="0px"
	 viewBox="30 30 40 40" enable-background="new 30 30 40 40" xml:space="preserve">
<g>
	<path fill="#A76635" d="M62.1,64H40.4c-0.4,0-0.6,0.3-0.6,0.6c0,0.4,0.3,0.6,0.6,0.6h21.7c0.4,0,0.6-0.3,0.6-0.6
		C62.8,64.3,62.5,64,62.1,64z"/>
	<path fill="#A76635" d="M41.1,62.1c0,0.4,0.3,0.6,0.6,0.6h19.2c0.4,0,0.6-0.3,0.6-0.6c0-0.4-0.3-0.6-0.6-0.6H41.7
		C41.3,61.5,41.1,61.7,41.1,62.1z"/>
	<path fill="#A76635" d="M41.3,50.8l8.1-2.7c-0.2,2.3-1.3,3.1-2.7,4c-1.7,1.2-3.5,2.5-3.7,6.7H43c-0.4,0-0.6,0.3-0.6,0.6
		c0,0.4,0.3,0.6,0.6,0.6h16.6c0.1,0,0.1,0,0.2,0c0.1,0,0.1,0,0.2,0c0.2,0,0.3-0.1,0.5-0.2c0.2-0.3,0.2-0.7,0-0.9l-1.3-1.2l1.2-1.2
		c0.1-0.1,0.2-0.3,0.2-0.5c0-0.2-0.1-0.3-0.2-0.5l-1.3-1.2l1.2-1.2c0.1-0.1,0.2-0.3,0.2-0.5c0-0.2-0.1-0.3-0.2-0.5L59,51.3l1.2-1.2
		c0.1-0.1,0.2-0.3,0.2-0.5c0-0.2-0.1-0.3-0.2-0.5L58.9,48l1.2-1.3c0.1-0.1,0.2-0.3,0.2-0.5c0-0.2-0.1-0.3-0.2-0.4l-1.4-1.1l1.1-1.4
		c0.1-0.1,0.2-0.3,0.1-0.5c0-0.2-0.2-0.3-0.3-0.4l-1.6-0.9l0.7-1.7c0.1-0.2,0.1-0.4,0-0.6c-0.1-0.2-0.3-0.3-0.5-0.3l-2-0.2l-1.5-2.4
		c-0.2-0.3-0.6-0.4-0.9-0.2l-2.1,1.2l-3.3-2.5c-0.2-0.1-0.4-0.2-0.7-0.1c-0.2,0.1-0.4,0.3-0.4,0.5l-0.3,3.5L38,45.7
		c-0.8,0.6-1,1.8-0.4,2.7l1,1.5c0.4,0.6,1.2,1,2,1C40.8,50.9,41.1,50.9,41.3,50.8z M39.7,49.2l-1-1.5c-0.2-0.3-0.1-0.7,0.1-1
		l9.2-7.1c0.1-0.1,0.2-0.3,0.2-0.5l0.2-2.6l2.7,2.1c0.2,0.2,0.5,0.2,0.7,0l2-1.1l1.4,2.1c0.1,0.2,0.3,0.3,0.5,0.3l1.4,0.1l-0.6,1.4
		c-0.1,0.3,0,0.7,0.3,0.8l1.4,0.8l-1,1.3C57,44.6,57,44.7,57,44.9c0,0.2,0.1,0.3,0.2,0.4l1.4,1l-1.1,1.3c-0.1,0.1-0.2,0.3-0.2,0.5
		c0,0.2,0.1,0.3,0.2,0.4l1.3,1.1l-1.2,1.2c-0.1,0.1-0.2,0.3-0.2,0.5c0,0.2,0.1,0.3,0.2,0.5l1.3,1.2l-1.2,1.2
		c-0.1,0.1-0.2,0.3-0.2,0.5c0,0.2,0.1,0.3,0.2,0.5l1.3,1.2l-1.2,1.2c-0.1,0.1-0.2,0.3-0.2,0.5c0,0.2,0.1,0.3,0.2,0.5l0.6,0.6h-14
		c0.2-3.5,1.6-4.6,3.2-5.7c1.5-1.1,3.1-2.2,3.2-5.5l1.1-0.4c0.3-0.1,0.5-0.5,0.4-0.8c-0.1-0.3-0.5-0.5-0.8-0.4l-10.6,3.5
		C40.5,49.7,39.9,49.5,39.7,49.2z"/>
</g>
</svg>
