<?xml version="1.0" encoding="utf-8"?>
<!-- Generator: Adobe Illustrator 18.1.1, SVG Export Plug-In . SVG Version: 6.00 Build 0)  -->
<svg version="1.1" id="Layer_1" xmlns="http://www.w3.org/2000/svg" xmlns:xlink="http://www.w3.org/1999/xlink" x="0px" y="0px"
	 viewBox="30 30 40 40" enable-background="new 30 30 40 40" xml:space="preserve">
<g>
	<path fill="#00BFE0" d="M62.7,34.8v30.4c0,0.4,0.3,0.7,0.7,0.7c0.4,0,0.7-0.3,0.7-0.7V34.8c0-0.4-0.3-0.7-0.7-0.7
		C63,34.1,62.7,34.4,62.7,34.8z"/>
	<path fill="#00BFE0" d="M36.6,65.9c0.4,0,0.7-0.3,0.7-0.7V34.8c0-0.4-0.3-0.7-0.7-0.7c-0.4,0-0.7,0.3-0.7,0.7v30.4
		C35.9,65.6,36.2,65.9,36.6,65.9z"/>
	<path fill="#00BFE0" d="M42.4,53c0,1,0.2,1.7,0.7,2.3c0.6,0.6,1.5,0.9,2.8,0.9h8.2c1.5,0,3.5-0.3,3.5-3.1V47c0-2.8-2-3.1-3.5-3.1
		h-8.2c-1.5,0-3.5,0.3-3.5,3.1V53z M43.8,47c0-1.2,0.3-1.7,2-1.7h8.2c1.7,0,2,0.5,2,1.7V53c0,1.2-0.3,1.7-2,1.7h-8.2
		c-0.9,0-1.4-0.1-1.7-0.4c-0.2-0.2-0.3-0.6-0.3-1.2L43.8,47L43.8,47z"/>
	<path fill="#00BFE0" d="M43.1,34.1c-0.4,0-0.7,0.3-0.7,0.7v4.5c0,1,0.2,1.7,0.7,2.3c0.6,0.6,1.5,0.9,2.8,0.9h8.2
		c1.5,0,3.5-0.3,3.5-3.1v-4.5c0-0.4-0.3-0.7-0.7-0.7c-0.4,0-0.7,0.3-0.7,0.7v4.5c0,1.2-0.3,1.7-2,1.7h-8.2c-0.9,0-1.4-0.1-1.7-0.4
		c-0.2-0.2-0.3-0.6-0.3-1.2v-4.5C43.8,34.4,43.5,34.1,43.1,34.1z"/>
	<path fill="#00BFE0" d="M42.4,65.2c0,0.4,0.3,0.7,0.7,0.7c0.4,0,0.7-0.3,0.7-0.7v-4.5c0-1.2,0.3-1.7,2-1.7h8.2c1.7,0,2,0.5,2,1.7
		v4.5c0,0.4,0.3,0.7,0.7,0.7c0.4,0,0.7-0.3,0.7-0.7v-4.5c0-2.8-2-3.1-3.5-3.1h-8.2c-1.5,0-3.5,0.3-3.5,3.1V65.2z"/>
	<path fill="#00BFE0" d="M40.9,36.8c0-0.3-0.2-0.6-0.6-0.6h-1.1c-0.3,0-0.6,0.2-0.6,0.6v1.1c0,0.3,0.2,0.6,0.6,0.6h1.1
		c0.3,0,0.6-0.2,0.6-0.6V36.8z"/>
	<path fill="#00BFE0" d="M40.9,40.4c0-0.3-0.2-0.6-0.6-0.6h-1.1c-0.3,0-0.6,0.2-0.6,0.6v1.1c0,0.3,0.2,0.6,0.6,0.6h1.1
		c0.3,0,0.6-0.2,0.6-0.6V40.4z"/>
	<path fill="#00BFE0" d="M40.9,44c0-0.3-0.2-0.6-0.6-0.6h-1.1c-0.3,0-0.6,0.2-0.6,0.6v1.1c0,0.3,0.2,0.6,0.6,0.6h1.1
		c0.3,0,0.6-0.2,0.6-0.6V44z"/>
	<path fill="#00BFE0" d="M40.9,47.7c0-0.3-0.2-0.6-0.6-0.6h-1.1c-0.3,0-0.6,0.2-0.6,0.6v1.1c0,0.3,0.2,0.6,0.6,0.6h1.1
		c0.3,0,0.6-0.2,0.6-0.6V47.7z"/>
	<path fill="#00BFE0" d="M40.9,51.3c0-0.3-0.2-0.6-0.6-0.6h-1.1c-0.3,0-0.6,0.2-0.6,0.6v1.1c0,0.3,0.2,0.6,0.6,0.6h1.1
		c0.3,0,0.6-0.2,0.6-0.6V51.3z"/>
	<path fill="#00BFE0" d="M40.9,54.9c0-0.3-0.2-0.6-0.6-0.6h-1.1c-0.3,0-0.6,0.2-0.6,0.6V56c0,0.3,0.2,0.6,0.6,0.6h1.1
		c0.3,0,0.6-0.2,0.6-0.6V54.9z"/>
	<path fill="#00BFE0" d="M40.9,58.5c0-0.3-0.2-0.6-0.6-0.6h-1.1c-0.3,0-0.6,0.2-0.6,0.6v1.1c0,0.3,0.2,0.6,0.6,0.6h1.1
		c0.3,0,0.6-0.2,0.6-0.6V58.5z"/>
	<path fill="#00BFE0" d="M40.9,62.2c0-0.3-0.2-0.6-0.6-0.6h-1.1c-0.3,0-0.6,0.2-0.6,0.6v1.1c0,0.3,0.2,0.6,0.6,0.6h1.1
		c0.3,0,0.6-0.2,0.6-0.6V62.2z"/>
	<path fill="#00BFE0" d="M59.6,38.4h1.1c0.3,0,0.6-0.2,0.6-0.6v-1.1c0-0.3-0.2-0.6-0.6-0.6h-1.1c-0.3,0-0.6,0.2-0.6,0.6v1.1
		C59.1,38.2,59.3,38.4,59.6,38.4z"/>
	<path fill="#00BFE0" d="M59.1,41.5c0,0.3,0.2,0.6,0.6,0.6h1.1c0.3,0,0.6-0.2,0.6-0.6v-1.1c0-0.3-0.2-0.6-0.6-0.6h-1.1
		c-0.3,0-0.6,0.2-0.6,0.6V41.5z"/>
	<path fill="#00BFE0" d="M59.1,45.1c0,0.3,0.2,0.6,0.6,0.6h1.1c0.3,0,0.6-0.2,0.6-0.6V44c0-0.3-0.2-0.6-0.6-0.6h-1.1
		c-0.3,0-0.6,0.2-0.6,0.6V45.1z"/>
	<path fill="#00BFE0" d="M59.1,48.7c0,0.3,0.2,0.6,0.6,0.6h1.1c0.3,0,0.6-0.2,0.6-0.6v-1.1c0-0.3-0.2-0.6-0.6-0.6h-1.1
		c-0.3,0-0.6,0.2-0.6,0.6V48.7z"/>
	<path fill="#00BFE0" d="M59.1,52.3c0,0.3,0.2,0.6,0.6,0.6h1.1c0.3,0,0.6-0.2,0.6-0.6v-1.1c0-0.3-0.2-0.6-0.6-0.6h-1.1
		c-0.3,0-0.6,0.2-0.6,0.6V52.3z"/>
	<path fill="#00BFE0" d="M59.1,56c0,0.3,0.2,0.6,0.6,0.6h1.1c0.3,0,0.6-0.2,0.6-0.6v-1.1c0-0.3-0.2-0.6-0.6-0.6h-1.1
		c-0.3,0-0.6,0.2-0.6,0.6V56z"/>
	<path fill="#00BFE0" d="M59.1,59.6c0,0.3,0.2,0.6,0.6,0.6h1.1c0.3,0,0.6-0.2,0.6-0.6v-1.1c0-0.3-0.2-0.6-0.6-0.6h-1.1
		c-0.3,0-0.6,0.2-0.6,0.6V59.6z"/>
	<path fill="#00BFE0" d="M59.1,63.2c0,0.3,0.2,0.6,0.6,0.6h1.1c0.3,0,0.6-0.2,0.6-0.6v-1.1c0-0.3-0.2-0.6-0.6-0.6h-1.1
		c-0.3,0-0.6,0.2-0.6,0.6V63.2z"/>
</g>
</svg>
