<?xml version="1.0" encoding="utf-8"?>
<!-- Generator: Adobe Illustrator 18.1.1, SVG Export Plug-In . SVG Version: 6.00 Build 0)  -->
<svg version="1.1" id="Layer_1" xmlns="http://www.w3.org/2000/svg" xmlns:xlink="http://www.w3.org/1999/xlink" x="0px" y="0px"
	 viewBox="30 30 40 40" enable-background="new 30 30 40 40" xml:space="preserve">
<path fill="#2E429B" d="M41.2,60.1c0.1,0.1,0.3,0.2,0.4,0.2l0.1,0c1.4,0,3.5-0.5,5.8-2.8l4.7-4.7l0.1,0.1l8.9,1.4
	c0.2,0,0.3-0.1,0.4-0.2l3-3c0.2-0.2,0.2-0.5,0.1-0.7l-2.5-7.6l1.4-1.4c0.2-0.2,0.2-0.5,0.1-0.7l-0.1-0.1c0,0,0,0,0-0.1l-4.2-4.2
	c-0.1-0.1-0.3-0.2-0.4-0.2h0c-0.2,0-0.3,0.1-0.4,0.2l-1.4,1.4l-0.1,0l-7.5-2.5c-0.1,0-0.2-0.1-0.3-0.1c-0.2,0-0.3,0.1-0.5,0.2l-3,3
	c-0.1,0.1-0.2,0.3-0.2,0.5l1.4,8.9l0,0.1l-0.1,0.1l-4.6,4.6c-2.4,2.4-2.8,4.5-2.8,5.9c0,0.2,0.1,0.3,0.2,0.5c0,0,0,0,0,0l0.2,0.1
	L40,59.1l-4.7,4.7C35.1,64,35,64.1,35,64.3c0,0.2,0.1,0.3,0.2,0.5c0.3,0.2,0.7,0.2,0.9,0l4.8-4.8L41.2,60.1z M63.5,50.4L63.5,50.4
	L61,52.9l-7.4-1.5l0.2-0.2l7.6-7.6L63.5,50.4z M47.1,39L47.1,39l2.5-2.5l0.1,0l6.7,2.1l-0.2,0.2l-7.6,7.6L47.1,39z M41,58
	c0.1-1.1,0.5-2.7,2.4-4.6l15.8-15.8l0.1,0.1l3.1,3.1l-0.1,0.1L46.6,56.6c-1.9,1.9-3.6,2.3-4.6,2.4l-0.1,0L41,58L41,58z"/>
</svg>
