<?xml version="1.0" encoding="utf-8"?>
<!-- Generator: Adobe Illustrator 18.1.1, SVG Export Plug-In . SVG Version: 6.00 Build 0)  -->
<svg version="1.1" id="Layer_1" xmlns="http://www.w3.org/2000/svg" xmlns:xlink="http://www.w3.org/1999/xlink" x="0px" y="0px"
	 viewBox="30 30 40 40" enable-background="new 30 30 40 40" xml:space="preserve">
<g>
	<path fill="#ED2024" d="M34.9,68.3h10.4c0.4,0,0.7-0.3,0.8-0.7L48.3,37c0-0.4-0.3-0.8-0.8-0.8H32.7c-0.4,0-0.8,0.4-0.8,0.8
		l2.2,30.6C34.2,68,34.5,68.3,34.9,68.3z M43.9,66.8h-7.6c-0.4,0-0.7-0.3-0.8-0.7l-1.4-19.1c0-0.4,0.3-0.8,0.8-0.8h10.3
		c0.4,0,0.8,0.4,0.8,0.8l-1.4,19.1C44.6,66.5,44.3,66.8,43.9,66.8z M46.6,38.5l-0.4,5.3c0,0.4-0.4,0.7-0.8,0.7H34.7
		c-0.4,0-0.7-0.3-0.8-0.7l-0.4-5.3c0-0.4,0.3-0.8,0.8-0.8h11.6C46.3,37.7,46.7,38.1,46.6,38.5z"/>
	<path fill="#ED2024" d="M67.8,36.9L67.8,36.9c0.3-0.3,0.4-0.7,0.1-1.1l-3.3-3.9c-0.2-0.2-0.5-0.2-0.7-0.2c-0.2,0-0.5,0.2-0.5,0.4
		l-5.2,9.1h-8.3v0.8c0,5.5,3.1,10.1,7.2,10.9c0.4,0.1,0.6,0.4,0.6,0.7V66c0,0.4-0.3,0.8-0.8,0.8h-1.3c-0.4,0-0.8,0.3-0.8,0.8v0
		c0,0.4,0.3,0.8,0.8,0.8h5.7c0.4,0,0.8-0.3,0.8-0.8v0c0-0.4-0.3-0.8-0.8-0.8H60c-0.4,0-0.8-0.3-0.8-0.8V53.6c0-0.4,0.3-0.7,0.6-0.7
		c4-0.9,7.1-5.4,7.1-10.9v-0.8h-7l3.7-6.5c0.3-0.5,0.9-0.5,1.2-0.1l1.9,2.3C67,37.2,67.5,37.2,67.8,36.9z M57.3,42.7l-1.1,1.9h-4.6
		c-0.1-0.6-0.2-1.2-0.3-1.9H57.3z M58.4,51.4c-2.8,0-5.2-2.2-6.3-5.3h12.6C63.5,49.3,61.2,51.4,58.4,51.4z M65.4,42.7
		c0,0.7-0.1,1.3-0.3,1.9h-7.2l1.1-1.9H65.4z"/>
</g>
</svg>
