<?xml version="1.0" encoding="utf-8"?>
<!-- Generator: Adobe Illustrator 18.1.1, SVG Export Plug-In . SVG Version: 6.00 Build 0)  -->
<svg version="1.1" id="Layer_1" xmlns="http://www.w3.org/2000/svg" xmlns:xlink="http://www.w3.org/1999/xlink" x="0px" y="0px"
	 viewBox="30 30 40 40" enable-background="new 30 30 40 40" xml:space="preserve">
<g>
	<path fill="#47BA82" d="M58.9,48.9h-8.4v-0.8c0-1.1,1.2-2.3,2.3-2.3h4.6c2,0,3.8-1.8,3.8-3.8c0-2-1.8-3.8-3.8-3.8h-4.6
		c-1.1,0-2.3-0.8-2.3-2.3c0-0.4-0.3-0.8-0.8-0.8c-0.4,0-0.8,0.3-0.8,0.8c0,2.4,1.9,3.8,3.8,3.8h4.6c1.1,0,2.3,1.2,2.3,2.3
		s-1.2,2.3-2.3,2.3h-4.6c-2,0-3.8,1.8-3.8,3.8v0.8h-8c-4.4,0-8,3.6-8,8s3.6,8,8,8c2.4,0,4.7-1.1,6.3-3h5.3c1.5,1.9,3.8,3,6.3,3
		c4.4,0,8-3.6,8-8S63.3,48.9,58.9,48.9z M58.9,63.3c-2.1,0-4-1-5.3-2.7c-0.1-0.2-0.4-0.3-0.6-0.3H47c-0.2,0-0.5,0.1-0.6,0.3
		c-1.2,1.7-3.2,2.7-5.3,2.7c-3.6,0-6.5-2.9-6.5-6.5s2.9-6.5,6.5-6.5h17.8c3.6,0,6.5,2.9,6.5,6.5S62.5,63.3,58.9,63.3z"/>
	<path fill="#47BA82" d="M43.7,56.1h-1.9v-1.9c0-0.4-0.3-0.8-0.8-0.8c-0.4,0-0.8,0.3-0.8,0.8v1.9h-1.9c-0.4,0-0.8,0.3-0.8,0.8
		c0,0.4,0.3,0.8,0.8,0.8h1.9v1.9c0,0.4,0.3,0.8,0.8,0.8c0.4,0,0.8-0.3,0.8-0.8v-1.9h1.9c0.4,0,0.8-0.3,0.8-0.8S44.2,56.1,43.7,56.1z
		"/>
	<circle fill="#47BA82" cx="58.9" cy="59.5" r="1.1"/>
	<circle fill="#47BA82" cx="58.9" cy="54.2" r="1.1"/>
	<circle fill="#47BA82" cx="61.6" cy="56.8" r="1.1"/>
	<circle fill="#47BA82" cx="56.3" cy="56.8" r="1.1"/>
	<path fill="#47BA82" d="M48.3,54.9h-1.1c-0.4,0-0.8,0.3-0.8,0.8s0.3,0.8,0.8,0.8h1.1c0.4,0,0.8-0.3,0.8-0.8S48.7,54.9,48.3,54.9z"
		/>
	<path fill="#47BA82" d="M52.5,54.9h-1.1c-0.4,0-0.8,0.3-0.8,0.8s0.3,0.8,0.8,0.8h1.1c0.4,0,0.8-0.3,0.8-0.8S52.9,54.9,52.5,54.9z"
		/>
</g>
</svg>
