<?xml version="1.0" encoding="utf-8"?>
<!-- Generator: Adobe Illustrator 18.1.1, SVG Export Plug-In . SVG Version: 6.00 Build 0)  -->
<svg version="1.1" id="Layer_1" xmlns="http://www.w3.org/2000/svg" xmlns:xlink="http://www.w3.org/1999/xlink" x="0px" y="0px"
	 viewBox="30 30 40 40" enable-background="new 30 30 40 40" xml:space="preserve">
<g>
	<path fill="#F5845E" d="M50,38.3c-0.4,0-0.7,0.3-0.7,0.7s0.3,0.7,0.7,0.7c5.4,0,9.8,4.3,10.2,10c0,0.4,0.3,0.7,0.7,0.7
		c0,0,0,0,0.1,0c0.4,0,0.7-0.4,0.7-0.8C61.2,43.1,56.2,38.3,50,38.3z"/>
	<path fill="#F5845E" d="M50,34.6c-8.4,0-15.4,7.1-15.4,15.4S41.6,65.4,50,65.4S65.4,58.4,65.4,50S58.4,34.6,50,34.6z M50,63.9
		c-7.6,0-13.9-6.4-13.9-13.9S42.4,36.1,50,36.1S63.9,42.4,63.9,50S57.6,63.9,50,63.9z"/>
	<path fill="#F5845E" d="M50,41.5c-4.6,0-8.5,3.9-8.5,8.5s3.9,8.5,8.5,8.5s8.5-3.9,8.5-8.5S54.6,41.5,50,41.5z M50,57.1
		c-3.9,0-7.1-3.3-7.1-7.1s3.3-7.1,7.1-7.1s7.1,3.3,7.1,7.1S53.9,57.1,50,57.1z"/>
	<path fill="#F5845E" d="M52.9,48.1c0-0.4-0.1-0.8-0.3-1.1c0,0,0,0,0,0c0,0-0.1-0.1-0.1-0.2c-0.2-0.3-0.6-0.6-1-0.8
		c-0.4-0.2-0.9-0.3-1.4-0.3c0,0,0,0,0,0h0c0,0,0,0,0,0c-0.5,0-1,0.1-1.4,0.3c-0.4,0.2-0.8,0.4-1,0.8c-0.1,0.1-0.1,0.1-0.1,0.1
		c0,0,0,0,0,0.1c-0.2,0.4-0.3,0.7-0.3,1.1c0,0.7,0.4,1.4,1,1.9c-0.6,0.5-1,1.1-1,1.9c0,1.2,0.8,2.1,2.1,2.3l0,0c0,0,0.1,0,0.1,0l0,0
		c0.2,0,0.3,0,0.5,0c0,0,0,0,0,0h0c0,0,0,0,0,0c0.3,0,0.6,0,0.9-0.1c1.2-0.3,1.9-1.2,1.9-2.3c0-0.7-0.4-1.4-1-1.9
		C52.5,49.5,52.9,48.9,52.9,48.1z M49.9,50.6h0.3c0.8,0,1.6,0.6,1.6,1.3c0,1.2-1.4,1.3-1.8,1.3c-0.4,0-1.8-0.1-1.8-1.3
		C48.2,51.1,49.1,50.6,49.9,50.6z M50.1,49.4h-0.3c-0.8,0-1.6-0.6-1.6-1.3c0-0.2,0-0.4,0.1-0.6l0,0c0,0,0,0,0.1-0.1l0,0
		c0.1-0.1,0.2-0.2,0.5-0.3l0,0c0,0,0.1,0,0.1,0l0,0c0.3-0.1,0.6-0.1,0.9-0.1c0.3,0,0.6,0.1,0.9,0.1l0,0c0,0,0.1,0,0.1,0l0,0
		c0.2,0.1,0.4,0.3,0.5,0.3l0,0c0,0,0,0,0.1,0.1c0.1,0.2,0.2,0.4,0.2,0.6C51.8,48.9,50.9,49.4,50.1,49.4z"/>
</g>
</svg>
