<?xml version="1.0" encoding="utf-8"?>
<!-- Generator: Adobe Illustrator 18.1.1, SVG Export Plug-In . SVG Version: 6.00 Build 0)  -->
<svg version="1.1" id="Layer_1" xmlns="http://www.w3.org/2000/svg" xmlns:xlink="http://www.w3.org/1999/xlink" x="0px" y="0px"
	 viewBox="0 0 40 40" enable-background="new 0 0 40 40" xml:space="preserve">
<g>
	<path fill="#6FBE46" d="M32.1,4H10.7C8.7,4,7.2,5.6,7.2,7.5v0.1c0,0.1,0,0.1,0,0.2c0,0,0,0.1,0,0.1v24.6c0,0.2,0,0.3,0.1,0.4
		C7.7,34.5,9,36,10.7,36h21.5c0.4,0,0.7-0.3,0.7-0.7V10.4c0-0.4-0.3-0.7-0.7-0.7H21.1c-0.1,0-0.1,0-0.2,0h-6c-0.1,0-0.1,0-0.2,0
		h-3.1c-0.1,0-0.1,0-0.2,0s-0.1,0-0.2,0h-0.5c-1.2,0-2.1-0.9-2.1-2.1V7.5c0-1.2,0.9-2.1,2.1-2.1h21.5c0.4,0,0.7-0.3,0.7-0.7
		S32.5,4,32.1,4z M31.4,34.6H12.1V11h2.1v11.6c0,0.3,0.2,0.5,0.4,0.6c0.2,0.1,0.5,0.1,0.7-0.1l2.5-2.1l2.5,2.1
		c0.1,0.1,0.3,0.2,0.4,0.2c0.1,0,0.2,0,0.3-0.1c0.2-0.1,0.4-0.4,0.4-0.6V11h9.9V34.6z M20.2,11v10.1l-1.8-1.5
		c-0.1-0.1-0.3-0.2-0.4-0.2s-0.3,0.1-0.4,0.2l-1.8,1.5V11H20.2z M10.7,11L10.7,11l0,23.6h0c-1.1,0-2.1-1.6-2.1-2.8V10.4
		C9.2,10.8,9.9,11,10.7,11z"/>
	<path fill="#6FBE46" d="M32.1,6.8H11c-0.4,0-0.7,0.3-0.7,0.7c0,0.4,0.3,0.7,0.7,0.7h21.1c0.4,0,0.7-0.3,0.7-0.7
		C32.8,7.1,32.5,6.8,32.1,6.8z"/>
</g>
</svg>
