<?xml version="1.0" encoding="utf-8"?>
<!-- Generator: Adobe Illustrator 18.1.1, SVG Export Plug-In . SVG Version: 6.00 Build 0)  -->
<svg version="1.1" id="Layer_1" xmlns="http://www.w3.org/2000/svg" xmlns:xlink="http://www.w3.org/1999/xlink" x="0px" y="0px"
	 viewBox="30 30 40 40" enable-background="new 30 30 40 40" xml:space="preserve">
<g>
	<path fill="#F36F21" d="M65.1,36H34.9c-1.5,0-2.7,1.2-2.7,2.7v19.4c0,1.5,1.2,2.7,2.7,2.7h30.1c1.5,0,2.7-1.2,2.7-2.7V38.7
		C67.8,37.2,66.6,36,65.1,36z M66.2,58.1c0,0.6-0.5,1.1-1.1,1.1H34.9c-0.6,0-1.1-0.5-1.1-1.1V38.7c0-0.6,0.5-1.1,1.1-1.1h30.1
		c0.6,0,1.1,0.5,1.1,1.1V58.1z"/>
	<path fill="#F36F21" d="M63.8,39.1H36.2c-0.4,0-0.8,0.4-0.8,0.8v17c0,0.4,0.4,0.8,0.8,0.8h27.7c0.4,0,0.8-0.4,0.8-0.8v-17
		C64.6,39.5,64.3,39.1,63.8,39.1z M63,56.1H37V40.7H63V56.1z"/>
	<path fill="#F36F21" d="M57.1,64c0.4,0,0.8-0.4,0.8-0.8s-0.4-0.8-0.8-0.8H42.9c-0.4,0-0.8,0.4-0.8,0.8s0.4,0.8,0.8,0.8H57.1z"/>
</g>
</svg>
