<?xml version="1.0" encoding="utf-8"?>
<!-- Generator: Adobe Illustrator 18.1.1, SVG Export Plug-In . SVG Version: 6.00 Build 0)  -->
<svg version="1.1" id="Layer_1" xmlns="http://www.w3.org/2000/svg" xmlns:xlink="http://www.w3.org/1999/xlink" x="0px" y="0px"
	 viewBox="30 30 40 40" enable-background="new 30 30 40 40" xml:space="preserve">
<path fill="#EBB320" d="M38.4,64h-3.8c-0.4,0-0.8,0.4-0.8,0.8s0.4,0.8,0.8,0.8h30.9c0.4,0,0.8-0.4,0.8-0.8S65.9,64,65.5,64h-3.8
	l-0.1-0.2l-9.4-27.3c-0.5-1.4-1.2-2.2-2.1-2.2s-1.6,0.8-2.1,2.2L38.4,64z M59.9,64H40.1l2.9-8.3H57L59.9,64z M56.5,54.1h-13l2.9-8.3
	h7.3L56.5,54.1z M49.4,37c0.1-0.3,0.2-0.6,0.3-0.8l0.3-0.4l0.3,0.4c0.1,0.2,0.2,0.5,0.3,0.8l2.5,7.2h-6.2L49.4,37z"/>
</svg>
